<mxfile host="app.diagrams.net" modified="2023-01-29T15:34:32.399Z" agent="5.0 (Windows)" etag="mno61WB-7Lea7HkwCo3b" version="20.8.13" type="github" pages="2">
  <diagram name="ページ1" id="-7ceIXDPW2_akQOP-5Nq">
    <mxGraphModel dx="2029" dy="1097" grid="1" gridSize="10" guides="1" tooltips="1" connect="1" arrows="1" fold="1" page="1" pageScale="1" pageWidth="827" pageHeight="1169" math="0" shadow="0">
      <root>
        <mxCell id="0" />
        <mxCell id="1" parent="0" />
        <mxCell id="iln5lI4_UesfJCWmbQeq-12" value="ベースURL&lt;br&gt;&lt;div&gt;/api&lt;/div&gt;" style="html=1;fontFamily=Garamond;" parent="1" vertex="1">
          <mxGeometry x="230" y="40" width="110" height="50" as="geometry" />
        </mxCell>
        <mxCell id="iln5lI4_UesfJCWmbQeq-32" value="" style="edgeStyle=orthogonalEdgeStyle;rounded=0;orthogonalLoop=1;jettySize=auto;html=1;exitX=0.5;exitY=1;exitDx=0;exitDy=0;" parent="1" source="iln5lI4_UesfJCWmbQeq-14" target="iln5lI4_UesfJCWmbQeq-31" edge="1">
          <mxGeometry relative="1" as="geometry" />
        </mxCell>
        <mxCell id="iln5lI4_UesfJCWmbQeq-40" value="" style="edgeStyle=orthogonalEdgeStyle;rounded=0;orthogonalLoop=1;jettySize=auto;html=1;fontFamily=Garamond;" parent="1" source="iln5lI4_UesfJCWmbQeq-14" target="iln5lI4_UesfJCWmbQeq-39" edge="1">
          <mxGeometry relative="1" as="geometry" />
        </mxCell>
        <mxCell id="iln5lI4_UesfJCWmbQeq-14" value="&lt;div&gt;開発中&lt;br&gt;&lt;/div&gt;&lt;div&gt;/v0&lt;/div&gt;" style="html=1;fontFamily=Garamond;" parent="1" vertex="1">
          <mxGeometry x="230" y="140" width="110" height="50" as="geometry" />
        </mxCell>
        <mxCell id="iln5lI4_UesfJCWmbQeq-17" value="リリース(未定)&lt;br&gt;&lt;div&gt;/v1&lt;/div&gt;" style="html=1;fontFamily=Garamond;" parent="1" vertex="1">
          <mxGeometry x="380" y="140" width="110" height="50" as="geometry" />
        </mxCell>
        <mxCell id="iln5lI4_UesfJCWmbQeq-21" value="" style="edgeStyle=orthogonalEdgeStyle;rounded=0;orthogonalLoop=1;jettySize=auto;html=1;entryX=0.5;entryY=0;entryDx=0;entryDy=0;exitX=0.5;exitY=1;exitDx=0;exitDy=0;" parent="1" source="iln5lI4_UesfJCWmbQeq-12" target="iln5lI4_UesfJCWmbQeq-17" edge="1">
          <mxGeometry x="-0.5" relative="1" as="geometry">
            <mxPoint x="285" y="180" as="targetPoint" />
            <mxPoint x="290" y="130" as="sourcePoint" />
            <mxPoint as="offset" />
          </mxGeometry>
        </mxCell>
        <mxCell id="iln5lI4_UesfJCWmbQeq-13" value="バージョン" style="edgeStyle=orthogonalEdgeStyle;rounded=0;orthogonalLoop=1;jettySize=auto;html=1;exitX=0.5;exitY=1;exitDx=0;exitDy=0;entryX=0.5;entryY=0;entryDx=0;entryDy=0;" parent="1" source="iln5lI4_UesfJCWmbQeq-12" target="iln5lI4_UesfJCWmbQeq-14" edge="1">
          <mxGeometry x="-0.5" relative="1" as="geometry">
            <mxPoint x="300" y="130" as="targetPoint" />
            <Array as="points" />
            <mxPoint as="offset" />
          </mxGeometry>
        </mxCell>
        <mxCell id="iln5lI4_UesfJCWmbQeq-48" style="edgeStyle=orthogonalEdgeStyle;rounded=0;orthogonalLoop=1;jettySize=auto;html=1;fontFamily=Garamond;" parent="1" source="iln5lI4_UesfJCWmbQeq-31" target="iln5lI4_UesfJCWmbQeq-47" edge="1">
          <mxGeometry relative="1" as="geometry" />
        </mxCell>
        <mxCell id="iln5lI4_UesfJCWmbQeq-31" value="&lt;div&gt;ws接続URLを返す&lt;br&gt;&lt;/div&gt;&lt;div&gt;/gateway&lt;/div&gt;" style="html=1;fontFamily=Garamond;" parent="1" vertex="1">
          <mxGeometry x="40" y="280" width="110" height="50" as="geometry" />
        </mxCell>
        <mxCell id="iln5lI4_UesfJCWmbQeq-43" value="" style="edgeStyle=orthogonalEdgeStyle;rounded=0;orthogonalLoop=1;jettySize=auto;html=1;fontFamily=Garamond;" parent="1" source="iln5lI4_UesfJCWmbQeq-39" target="iln5lI4_UesfJCWmbQeq-42" edge="1">
          <mxGeometry relative="1" as="geometry" />
        </mxCell>
        <mxCell id="iln5lI4_UesfJCWmbQeq-39" value="&lt;div&gt;/guilds/&lt;/div&gt;" style="html=1;fontFamily=Garamond;" parent="1" vertex="1">
          <mxGeometry x="230" y="280" width="110" height="50" as="geometry" />
        </mxCell>
        <mxCell id="iln5lI4_UesfJCWmbQeq-42" value="ギルド作成&lt;br&gt;&lt;div&gt;/create&lt;/div&gt;" style="html=1;fontFamily=Garamond;" parent="1" vertex="1">
          <mxGeometry x="230" y="410" width="110" height="50" as="geometry" />
        </mxCell>
        <mxCell id="iln5lI4_UesfJCWmbQeq-47" value="&lt;div&gt;ws接続を返す&lt;br&gt;&lt;/div&gt;&lt;div&gt;/ws&lt;/div&gt;" style="html=1;fontFamily=Garamond;" parent="1" vertex="1">
          <mxGeometry x="40" y="410" width="110" height="50" as="geometry" />
        </mxCell>
      </root>
    </mxGraphModel>
  </diagram>
  <diagram id="mPe1std_lfuKujRbk9eR" name="ページ2">
    <mxGraphModel dx="400" dy="287" grid="1" gridSize="10" guides="1" tooltips="1" connect="1" arrows="1" fold="1" page="1" pageScale="1" pageWidth="827" pageHeight="1169" math="0" shadow="0">
      <root>
        <mxCell id="0" />
        <mxCell id="1" parent="0" />
        <mxCell id="XEXK7phXKVfzAwQ8zvIh-19" value="Server" style="shape=table;startSize=30;container=1;collapsible=1;childLayout=tableLayout;fixedRows=1;rowLines=0;fontStyle=1;align=center;resizeLast=1;" vertex="1" parent="1">
          <mxGeometry x="80" y="60" width="180" height="150" as="geometry" />
        </mxCell>
        <mxCell id="XEXK7phXKVfzAwQ8zvIh-20" value="" style="shape=tableRow;horizontal=0;startSize=0;swimlaneHead=0;swimlaneBody=0;fillColor=none;collapsible=0;dropTarget=0;points=[[0,0.5],[1,0.5]];portConstraint=eastwest;top=0;left=0;right=0;bottom=1;" vertex="1" parent="XEXK7phXKVfzAwQ8zvIh-19">
          <mxGeometry y="30" width="180" height="30" as="geometry" />
        </mxCell>
        <mxCell id="XEXK7phXKVfzAwQ8zvIh-21" value="PK" style="shape=partialRectangle;connectable=0;fillColor=none;top=0;left=0;bottom=0;right=0;fontStyle=1;overflow=hidden;" vertex="1" parent="XEXK7phXKVfzAwQ8zvIh-20">
          <mxGeometry width="30" height="30" as="geometry">
            <mxRectangle width="30" height="30" as="alternateBounds" />
          </mxGeometry>
        </mxCell>
        <mxCell id="XEXK7phXKVfzAwQ8zvIh-22" value="UniqueID" style="shape=partialRectangle;connectable=0;fillColor=none;top=0;left=0;bottom=0;right=0;align=left;spacingLeft=6;fontStyle=5;overflow=hidden;" vertex="1" parent="XEXK7phXKVfzAwQ8zvIh-20">
          <mxGeometry x="30" width="150" height="30" as="geometry">
            <mxRectangle width="150" height="30" as="alternateBounds" />
          </mxGeometry>
        </mxCell>
        <mxCell id="XEXK7phXKVfzAwQ8zvIh-23" value="" style="shape=tableRow;horizontal=0;startSize=0;swimlaneHead=0;swimlaneBody=0;fillColor=none;collapsible=0;dropTarget=0;points=[[0,0.5],[1,0.5]];portConstraint=eastwest;top=0;left=0;right=0;bottom=0;" vertex="1" parent="XEXK7phXKVfzAwQ8zvIh-19">
          <mxGeometry y="60" width="180" height="30" as="geometry" />
        </mxCell>
        <mxCell id="XEXK7phXKVfzAwQ8zvIh-24" value="" style="shape=partialRectangle;connectable=0;fillColor=none;top=0;left=0;bottom=0;right=0;editable=1;overflow=hidden;" vertex="1" parent="XEXK7phXKVfzAwQ8zvIh-23">
          <mxGeometry width="30" height="30" as="geometry">
            <mxRectangle width="30" height="30" as="alternateBounds" />
          </mxGeometry>
        </mxCell>
        <mxCell id="XEXK7phXKVfzAwQ8zvIh-25" value="Row 1" style="shape=partialRectangle;connectable=0;fillColor=none;top=0;left=0;bottom=0;right=0;align=left;spacingLeft=6;overflow=hidden;" vertex="1" parent="XEXK7phXKVfzAwQ8zvIh-23">
          <mxGeometry x="30" width="150" height="30" as="geometry">
            <mxRectangle width="150" height="30" as="alternateBounds" />
          </mxGeometry>
        </mxCell>
        <mxCell id="XEXK7phXKVfzAwQ8zvIh-26" value="" style="shape=tableRow;horizontal=0;startSize=0;swimlaneHead=0;swimlaneBody=0;fillColor=none;collapsible=0;dropTarget=0;points=[[0,0.5],[1,0.5]];portConstraint=eastwest;top=0;left=0;right=0;bottom=0;" vertex="1" parent="XEXK7phXKVfzAwQ8zvIh-19">
          <mxGeometry y="90" width="180" height="30" as="geometry" />
        </mxCell>
        <mxCell id="XEXK7phXKVfzAwQ8zvIh-27" value="" style="shape=partialRectangle;connectable=0;fillColor=none;top=0;left=0;bottom=0;right=0;editable=1;overflow=hidden;" vertex="1" parent="XEXK7phXKVfzAwQ8zvIh-26">
          <mxGeometry width="30" height="30" as="geometry">
            <mxRectangle width="30" height="30" as="alternateBounds" />
          </mxGeometry>
        </mxCell>
        <mxCell id="XEXK7phXKVfzAwQ8zvIh-28" value="Row 2" style="shape=partialRectangle;connectable=0;fillColor=none;top=0;left=0;bottom=0;right=0;align=left;spacingLeft=6;overflow=hidden;" vertex="1" parent="XEXK7phXKVfzAwQ8zvIh-26">
          <mxGeometry x="30" width="150" height="30" as="geometry">
            <mxRectangle width="150" height="30" as="alternateBounds" />
          </mxGeometry>
        </mxCell>
        <mxCell id="XEXK7phXKVfzAwQ8zvIh-29" value="" style="shape=tableRow;horizontal=0;startSize=0;swimlaneHead=0;swimlaneBody=0;fillColor=none;collapsible=0;dropTarget=0;points=[[0,0.5],[1,0.5]];portConstraint=eastwest;top=0;left=0;right=0;bottom=0;" vertex="1" parent="XEXK7phXKVfzAwQ8zvIh-19">
          <mxGeometry y="120" width="180" height="30" as="geometry" />
        </mxCell>
        <mxCell id="XEXK7phXKVfzAwQ8zvIh-30" value="" style="shape=partialRectangle;connectable=0;fillColor=none;top=0;left=0;bottom=0;right=0;editable=1;overflow=hidden;" vertex="1" parent="XEXK7phXKVfzAwQ8zvIh-29">
          <mxGeometry width="30" height="30" as="geometry">
            <mxRectangle width="30" height="30" as="alternateBounds" />
          </mxGeometry>
        </mxCell>
        <mxCell id="XEXK7phXKVfzAwQ8zvIh-31" value="Row 3" style="shape=partialRectangle;connectable=0;fillColor=none;top=0;left=0;bottom=0;right=0;align=left;spacingLeft=6;overflow=hidden;" vertex="1" parent="XEXK7phXKVfzAwQ8zvIh-29">
          <mxGeometry x="30" width="150" height="30" as="geometry">
            <mxRectangle width="150" height="30" as="alternateBounds" />
          </mxGeometry>
        </mxCell>
        <mxCell id="XEXK7phXKVfzAwQ8zvIh-35" value="" style="edgeStyle=orthogonalEdgeStyle;rounded=0;orthogonalLoop=1;jettySize=auto;html=1;" edge="1" parent="1" source="XEXK7phXKVfzAwQ8zvIh-32" target="XEXK7phXKVfzAwQ8zvIh-34">
          <mxGeometry relative="1" as="geometry" />
        </mxCell>
        <mxCell id="XEXK7phXKVfzAwQ8zvIh-32" value="a" style="html=1;" vertex="1" parent="1">
          <mxGeometry x="200" y="360" width="110" height="50" as="geometry" />
        </mxCell>
        <mxCell id="XEXK7phXKVfzAwQ8zvIh-49" style="edgeStyle=orthogonalEdgeStyle;rounded=0;orthogonalLoop=1;jettySize=auto;html=1;" edge="1" parent="1" source="XEXK7phXKVfzAwQ8zvIh-34" target="XEXK7phXKVfzAwQ8zvIh-41">
          <mxGeometry relative="1" as="geometry" />
        </mxCell>
        <mxCell id="XEXK7phXKVfzAwQ8zvIh-34" value="0x01" style="whiteSpace=wrap;html=1;" vertex="1" parent="1">
          <mxGeometry x="195" y="425" width="120" height="60" as="geometry" />
        </mxCell>
        <mxCell id="XEXK7phXKVfzAwQ8zvIh-36" value="" style="edgeStyle=orthogonalEdgeStyle;rounded=0;orthogonalLoop=1;jettySize=auto;html=1;" edge="1" parent="1" source="XEXK7phXKVfzAwQ8zvIh-37" target="XEXK7phXKVfzAwQ8zvIh-38">
          <mxGeometry relative="1" as="geometry" />
        </mxCell>
        <mxCell id="XEXK7phXKVfzAwQ8zvIh-37" value="b" style="html=1;" vertex="1" parent="1">
          <mxGeometry x="359" y="360" width="110" height="50" as="geometry" />
        </mxCell>
        <mxCell id="XEXK7phXKVfzAwQ8zvIh-64" style="edgeStyle=orthogonalEdgeStyle;rounded=0;orthogonalLoop=1;jettySize=auto;html=1;" edge="1" parent="1" source="XEXK7phXKVfzAwQ8zvIh-38" target="XEXK7phXKVfzAwQ8zvIh-42">
          <mxGeometry relative="1" as="geometry" />
        </mxCell>
        <mxCell id="XEXK7phXKVfzAwQ8zvIh-38" value="0x02" style="whiteSpace=wrap;html=1;" vertex="1" parent="1">
          <mxGeometry x="354" y="425" width="120" height="60" as="geometry" />
        </mxCell>
        <mxCell id="XEXK7phXKVfzAwQ8zvIh-41" value="&lt;div&gt;0x01&lt;/div&gt;&lt;div&gt;3&lt;br&gt;&lt;/div&gt;" style="html=1;" vertex="1" parent="1">
          <mxGeometry x="200" y="560" width="110" height="50" as="geometry" />
        </mxCell>
        <mxCell id="XEXK7phXKVfzAwQ8zvIh-42" value="&lt;div&gt;0x02&lt;/div&gt;&lt;div&gt;2&lt;br&gt;&lt;/div&gt;" style="html=1;" vertex="1" parent="1">
          <mxGeometry x="359" y="550" width="110" height="50" as="geometry" />
        </mxCell>
        <mxCell id="XEXK7phXKVfzAwQ8zvIh-43" value="a := 1" style="text;html=1;align=center;verticalAlign=middle;resizable=0;points=[];autosize=1;strokeColor=none;fillColor=none;" vertex="1" parent="1">
          <mxGeometry x="230" y="310" width="50" height="30" as="geometry" />
        </mxCell>
        <mxCell id="XEXK7phXKVfzAwQ8zvIh-52" value="a=2" style="text;html=1;align=center;verticalAlign=middle;resizable=0;points=[];autosize=1;strokeColor=none;fillColor=none;" vertex="1" parent="1">
          <mxGeometry x="630" y="360" width="40" height="30" as="geometry" />
        </mxCell>
        <mxCell id="XEXK7phXKVfzAwQ8zvIh-53" value="print(c)" style="text;html=1;align=center;verticalAlign=middle;resizable=0;points=[];autosize=1;strokeColor=none;fillColor=none;" vertex="1" parent="1">
          <mxGeometry x="660" y="420" width="60" height="30" as="geometry" />
        </mxCell>
        <mxCell id="XEXK7phXKVfzAwQ8zvIh-55" value="" style="edgeStyle=orthogonalEdgeStyle;rounded=0;orthogonalLoop=1;jettySize=auto;html=1;entryX=0.612;entryY=0.009;entryDx=0;entryDy=0;entryPerimeter=0;" edge="1" parent="1" source="XEXK7phXKVfzAwQ8zvIh-54" target="XEXK7phXKVfzAwQ8zvIh-32">
          <mxGeometry relative="1" as="geometry" />
        </mxCell>
        <mxCell id="XEXK7phXKVfzAwQ8zvIh-56" style="edgeStyle=orthogonalEdgeStyle;rounded=0;orthogonalLoop=1;jettySize=auto;html=1;" edge="1" parent="1" source="XEXK7phXKVfzAwQ8zvIh-54" target="XEXK7phXKVfzAwQ8zvIh-37">
          <mxGeometry relative="1" as="geometry" />
        </mxCell>
        <mxCell id="XEXK7phXKVfzAwQ8zvIh-54" value="0x03" style="whiteSpace=wrap;html=1;" vertex="1" parent="1">
          <mxGeometry x="330" y="260" width="120" height="60" as="geometry" />
        </mxCell>
        <mxCell id="XEXK7phXKVfzAwQ8zvIh-59" style="edgeStyle=orthogonalEdgeStyle;rounded=0;orthogonalLoop=1;jettySize=auto;html=1;" edge="1" parent="1" source="XEXK7phXKVfzAwQ8zvIh-58" target="XEXK7phXKVfzAwQ8zvIh-54">
          <mxGeometry relative="1" as="geometry" />
        </mxCell>
        <mxCell id="XEXK7phXKVfzAwQ8zvIh-58" value="v" style="whiteSpace=wrap;html=1;" vertex="1" parent="1">
          <mxGeometry x="294" y="140" width="120" height="60" as="geometry" />
        </mxCell>
        <mxCell id="XEXK7phXKVfzAwQ8zvIh-60" value="p:=&amp;amp;v" style="text;html=1;align=center;verticalAlign=middle;resizable=0;points=[];autosize=1;strokeColor=none;fillColor=none;" vertex="1" parent="1">
          <mxGeometry x="490" y="100" width="50" height="30" as="geometry" />
        </mxCell>
        <mxCell id="XEXK7phXKVfzAwQ8zvIh-63" style="edgeStyle=orthogonalEdgeStyle;rounded=0;orthogonalLoop=1;jettySize=auto;html=1;entryX=0.5;entryY=0;entryDx=0;entryDy=0;exitX=0.5;exitY=1;exitDx=0;exitDy=0;" edge="1" parent="1" source="XEXK7phXKVfzAwQ8zvIh-62" target="XEXK7phXKVfzAwQ8zvIh-54">
          <mxGeometry relative="1" as="geometry" />
        </mxCell>
        <mxCell id="XEXK7phXKVfzAwQ8zvIh-62" value="p" style="whiteSpace=wrap;html=1;" vertex="1" parent="1">
          <mxGeometry x="490" y="140" width="120" height="60" as="geometry" />
        </mxCell>
      </root>
    </mxGraphModel>
  </diagram>
</mxfile>
